<?xml version="1.0" standalone="no"?>
<!DOCTYPE svg PUBLIC "-//W3C//DTD SVG 20010904//EN"
 "http://www.w3.org/TR/2001/REC-SVG-20010904/DTD/svg10.dtd">
<svg version="1.0" xmlns="http://www.w3.org/2000/svg"
 width="800.000000pt" height="800.000000pt" viewBox="0 0 800.000000 800.000000"
 preserveAspectRatio="xMidYMid meet">

<g transform="translate(0.000000,800.000000) scale(0.100000,-0.100000)"
fill="#000000" stroke="none">
<path d="M3756 7190 c-408 -32 -826 -148 -1187 -331 -1467 -742 -2134 -2441
-1564 -3981 96 -259 290 -609 459 -828 466 -603 1147 -1030 1884 -1179 628
-128 1244 -75 1827 156 797 315 1438 941 1773 1733 354 835 330 1802 -63 2618
-438 907 -1255 1548 -2233 1752 -252 53 -649 79 -896 60z m509 -80 c430 -40
850 -165 1210 -361 747 -406 1294 -1085 1529 -1896 l15 -53 -42 0 -43 0 -56
169 c-285 847 -923 1519 -1762 1856 -222 89 -476 154 -746 192 -171 23 -532
23 -730 -1 -843 -101 -1602 -548 -2101 -1236 -201 -276 -378 -638 -459 -941
-10 -38 -12 -39 -55 -39 -31 0 -43 4 -40 13 2 6 18 59 35 116 155 512 494
1038 899 1396 534 471 1144 728 1866 788 95 8 379 6 480 -3z m150 -130 c272
-38 522 -109 782 -220 762 -327 1379 -993 1646 -1776 24 -71 47 -141 51 -156
l6 -28 -67 0 -68 0 -18 63 c-10 34 -41 121 -69 192 -383 975 -1277 1669 -2318
1800 -282 35 -558 29 -848 -20 -758 -129 -1427 -553 -1869 -1185 -158 -226
-292 -490 -370 -730 l-38 -119 -67 -1 c-38 0 -68 2 -68 5 0 3 19 63 41 133 98
300 247 590 436 845 525 708 1310 1145 2188 1217 172 14 478 5 650 -20z m-1
-210 c604 -92 1136 -361 1567 -792 226 -227 386 -451 529 -743 74 -151 170
-391 170 -426 0 -5 -1026 -9 -2680 -9 -1474 0 -2680 4 -2680 8 0 43 101 295
186 462 252 499 653 912 1159 1193 306 170 703 292 1072 327 154 15 521 4 677
-20z m2636 -2102 c93 -432 93 -904 0 -1335 l-12 -53 -3038 0 -3038 0 -12 53
c-93 431 -93 903 0 1335 l12 52 3038 0 3038 0 12 -52z m-5965 -1525 c142 -490
424 -957 797 -1319 150 -145 252 -228 423 -343 403 -270 813 -425 1320 -498
169 -24 572 -24 745 0 872 122 1601 557 2103 1254 182 252 349 593 437 891
l22 72 43 0 43 0 -34 -112 c-216 -727 -730 -1380 -1391 -1771 -519 -307 -1079
-451 -1693 -434 -677 18 -1312 253 -1855 687 -479 383 -857 939 -1029 1518
l-34 112 43 0 44 0 16 -57z m168 -6 c31 -105 114 -306 180 -437 217 -428 542
-800 937 -1072 380 -262 826 -428 1315 -489 152 -19 514 -17 670 4 452 61 862
212 1227 454 324 213 648 544 852 868 114 181 263 502 313 672 l18 63 68 0 67
0 -6 -27 c-18 -72 -98 -290 -146 -399 -382 -853 -1149 -1488 -2058 -1703 -803
-190 -1668 -35 -2355 424 -173 115 -274 196 -418 335 -358 344 -625 768 -776
1233 -23 69 -41 129 -41 132 0 3 30 5 68 5 l67 0 18 -63z m5427 54 c0 -16 -66
-203 -99 -281 -260 -610 -727 -1108 -1321 -1410 -370 -187 -748 -283 -1175
-297 -421 -13 -804 58 -1187 222 -635 272 -1156 778 -1440 1398 -54 120 -121
293 -133 345 l-7 32 2681 0 c1634 0 2681 -4 2681 -9z"/>
<path d="M3360 5980 c0 -89 0 -90 25 -90 l25 0 0 -385 0 -385 90 0 90 0 0 59
c0 100 -41 91 410 91 451 0 410 9 410 -91 l0 -59 90 0 90 0 0 385 0 385 25 0
c25 0 25 1 25 90 l0 90 -640 0 -640 0 0 -90z m1230 0 l0 -40 -590 0 -590 0 0
40 0 40 590 0 590 0 0 -40z m-50 -220 l0 -130 -540 0 -540 0 0 130 0 130 540
0 540 0 0 -130z m0 -310 l0 -130 -540 0 -540 0 0 130 0 130 540 0 540 0 0
-130z m-994 -196 c-3 -9 -6 -31 -6 -50 0 -33 -1 -34 -40 -34 l-40 0 0 50 0 50
46 0 c38 0 45 -3 40 -16z m994 -34 l0 -50 -40 0 c-39 0 -40 1 -40 34 0 19 -3
41 -6 50 -5 13 2 16 40 16 l46 0 0 -50z"/>
<path d="M3900 5760 c0 -19 7 -20 100 -20 93 0 100 1 100 20 0 19 -7 20 -100
20 -93 0 -100 -1 -100 -20z"/>
<path d="M3904 5465 c-11 -29 11 -36 102 -33 81 3 89 5 89 23 0 18 -8 20 -93
23 -77 2 -93 0 -98 -13z"/>
<path d="M2600 4153 c-93 -256 -124 -328 -147 -338 -14 -6 -23 -18 -23 -32 0
-22 4 -23 80 -23 79 0 80 0 80 25 0 20 -5 25 -26 25 -23 0 -25 3 -20 25 19 75
18 75 105 75 l80 0 13 -41 c10 -36 10 -43 -5 -54 -9 -7 -17 -22 -17 -34 0 -20
5 -21 95 -21 95 0 95 0 95 25 0 20 -5 25 -25 25 -14 0 -25 6 -25 13 0 6 -37
110 -82 229 -79 207 -84 218 -109 218 -25 0 -30 -8 -69 -117z m79 -106 l30
-87 -61 0 c-51 0 -59 2 -54 16 3 9 16 49 29 89 12 40 23 72 25 71 1 -2 15 -42
31 -89z"/>
<path d="M3750 4153 c-93 -256 -124 -328 -147 -338 -14 -6 -23 -18 -23 -32 0
-22 4 -23 80 -23 79 0 80 0 80 25 0 20 -5 25 -26 25 -23 0 -25 3 -20 25 19 75
18 75 105 75 l80 0 13 -41 c10 -36 10 -43 -5 -54 -9 -7 -17 -22 -17 -34 0 -20
5 -21 95 -21 95 0 95 0 95 25 0 20 -5 25 -25 25 -14 0 -25 6 -25 13 0 6 -37
110 -82 229 -79 207 -84 218 -109 218 -25 0 -30 -8 -69 -117z m79 -106 l30
-87 -61 0 c-51 0 -59 2 -54 16 3 9 16 49 29 89 12 40 23 72 25 71 1 -2 15 -42
31 -89z"/>
<path d="M5268 4256 c-110 -39 -167 -127 -167 -256 -1 -78 21 -132 74 -183 38
-37 112 -67 165 -67 97 0 251 103 200 135 -5 3 -30 -10 -55 -29 -138 -106
-275 -26 -275 159 0 83 22 138 69 178 65 55 164 25 191 -58 8 -24 18 -35 31
-35 17 0 19 8 19 85 0 84 0 85 -25 85 -16 0 -25 -6 -25 -16 0 -11 -5 -14 -17
-9 -65 27 -130 30 -185 11z"/>
<path d="M3040 4236 c0 -21 5 -26 25 -26 l25 0 0 -181 c0 -180 -6 -219 -35
-219 -9 0 -15 -10 -15 -25 l0 -25 105 0 105 0 0 25 c0 21 -5 25 -30 25 l-30 0
0 75 c0 68 2 75 20 75 21 0 29 -10 100 -122 l49 -78 61 0 c57 0 60 1 60 24 0
16 -7 27 -20 31 -11 4 -39 34 -61 68 -23 34 -50 69 -61 77 -18 15 -17 17 22
34 51 22 80 67 80 123 0 59 -18 91 -64 116 -35 18 -62 22 -188 25 l-148 4 0
-26z m254 -37 c54 -25 60 -124 11 -166 -19 -17 -39 -23 -71 -23 l-44 0 0 88
c0 55 4 92 12 100 15 15 59 15 92 1z"/>
<path d="M4190 4236 c0 -21 5 -26 25 -26 l25 0 0 -190 0 -190 -25 -16 c-14 -9
-25 -25 -25 -35 0 -18 9 -19 131 -19 160 0 209 11 249 57 25 28 30 43 30 83 0
41 -5 53 -30 79 -18 17 -47 33 -68 37 -32 6 -34 8 -18 18 76 45 101 98 72 153
-27 53 -74 67 -228 71 l-138 4 0 -26z m253 -48 c10 -12 17 -37 17 -60 0 -52
-35 -88 -85 -88 l-35 0 0 74 c0 56 4 79 16 91 21 20 62 13 87 -17z m21 -219
c22 -17 26 -28 26 -69 0 -64 -30 -90 -101 -90 l-49 0 0 90 0 90 49 0 c34 0 56
-6 75 -21z"/>
<path d="M4750 4235 c0 -20 5 -25 25 -25 l25 0 0 -189 c0 -159 -3 -192 -16
-205 -8 -9 -20 -16 -25 -16 -5 0 -9 -9 -9 -20 0 -19 7 -20 100 -20 l100 0 0
25 c0 20 -5 25 -25 25 l-25 0 0 189 c0 159 3 192 16 205 8 9 20 16 25 16 5 0
9 9 9 20 0 19 -7 20 -100 20 l-100 0 0 -25z"/>
<path d="M2630 2794 c-11 -12 -10 -18 3 -32 16 -15 18 -15 34 0 13 14 14 20 3
32 -7 9 -16 16 -20 16 -4 0 -13 -7 -20 -16z"/>
<path d="M3618 2798 c-27 -9 -39 -28 -18 -28 6 0 10 -43 10 -109 0 -63 -4
-112 -10 -116 -23 -14 -7 -25 40 -25 38 0 50 4 50 15 0 8 -6 14 -12 13 -10 -2
-12 30 -12 130 1 140 2 139 -48 120z"/>
<path d="M5358 2798 c-27 -9 -39 -28 -18 -28 6 0 10 -13 10 -30 0 -27 -3 -30
-31 -30 -43 0 -69 -17 -85 -56 -17 -41 -4 -108 24 -123 21 -11 172 -13 172 -1
0 4 -7 10 -15 14 -12 4 -15 29 -15 136 0 71 -3 130 -7 129 -5 0 -20 -5 -35
-11z m-13 -178 c0 -54 -3 -65 -18 -68 -30 -6 -47 17 -47 64 0 46 21 77 49 72
13 -3 16 -16 16 -68z"/>
<path d="M2290 2770 c-23 -23 -26 -67 -6 -96 8 -11 34 -29 58 -39 46 -20 78
-43 78 -56 0 -16 -32 -39 -54 -39 -23 0 -66 38 -66 58 0 7 -7 12 -15 12 -11 0
-15 -11 -15 -43 l0 -43 66 -2 c92 -3 124 16 124 74 0 36 -16 52 -87 88 -43 21
-53 31 -53 51 0 50 83 41 96 -10 11 -43 34 -30 34 18 l0 43 -70 2 c-58 2 -73
-1 -90 -18z"/>
<path d="M4330 2770 c-23 -23 -26 -67 -6 -96 8 -11 34 -29 58 -39 46 -20 78
-43 78 -56 0 -16 -32 -39 -54 -39 -23 0 -66 38 -66 58 0 7 -7 12 -15 12 -11 0
-15 -11 -15 -43 l0 -43 66 -2 c92 -3 124 16 124 74 0 36 -16 52 -87 88 -43 21
-53 31 -53 51 0 50 83 41 96 -10 11 -43 34 -30 34 18 l0 43 -70 2 c-58 2 -73
-1 -90 -18z"/>
<path d="M4658 2728 c-29 -32 -35 -48 -18 -48 6 0 10 -24 10 -52 0 -74 17
-102 61 -106 25 -2 40 3 54 18 22 24 12 39 -16 22 -30 -19 -39 -6 -39 59 0 52
2 59 20 59 11 0 20 7 20 15 0 8 -9 15 -20 15 -15 0 -20 7 -20 25 0 33 -19 31
-52 -7z"/>
<path d="M2597 2703 c-12 -11 -8 -23 8 -23 12 0 15 -14 15 -64 0 -36 -4 -68
-10 -71 -23 -14 -7 -25 35 -25 33 0 45 4 45 15 0 8 -4 15 -10 15 -6 0 -10 33
-10 80 l0 80 -33 0 c-19 0 -37 -3 -40 -7z"/>
<path d="M2816 2703 c-11 -11 -6 -23 9 -23 12 0 15 -14 15 -64 0 -36 -4 -68
-10 -71 -23 -14 -7 -25 35 -25 33 0 45 4 45 15 0 8 -4 15 -10 15 -6 0 -10 26
-10 59 0 43 4 60 15 65 24 9 45 -4 46 -28 0 -11 2 -30 4 -41 2 -11 -3 -33 -11
-49 -7 -16 -14 -31 -14 -33 0 -1 23 -3 50 -3 39 0 50 4 50 16 0 8 -4 13 -9 10
-5 -4 -11 23 -13 59 -3 56 0 66 15 71 31 10 47 -14 47 -72 0 -29 -4 -56 -10
-59 -23 -14 -7 -25 35 -25 33 0 45 4 45 15 0 8 -4 15 -10 15 -6 0 -10 28 -10
64 0 45 -5 69 -16 80 -18 19 -75 21 -92 4 -8 -8 -15 -8 -24 -1 -14 12 -162 16
-172 6z"/>
<path d="M3260 2695 c0 -8 7 -15 15 -15 12 0 15 -19 15 -109 0 -84 -3 -111
-15 -121 -26 -22 -16 -30 35 -30 38 0 50 4 50 15 0 8 -4 15 -10 15 -5 0 -10
16 -10 35 0 33 2 35 33 35 45 0 74 23 88 69 10 33 9 45 -7 78 l-19 38 -87 2
c-72 2 -88 0 -88 -12z m134 -21 c18 -18 21 -85 6 -115 -6 -11 -21 -19 -35 -19
-24 0 -25 2 -25 69 0 65 5 77 32 80 4 1 14 -6 22 -15z"/>
<path d="M3790 2702 c0 -4 4 -12 10 -18 5 -5 28 -47 50 -93 28 -58 38 -90 34
-107 -8 -30 -24 -41 -34 -23 -7 10 -11 10 -24 0 -20 -17 -9 -41 19 -41 34 0
51 27 90 140 20 58 43 112 51 121 21 24 17 29 -21 29 -36 0 -43 -8 -25 -26 7
-7 4 -28 -8 -65 l-19 -54 -22 50 c-17 38 -20 54 -12 67 17 27 15 28 -39 28
-27 0 -50 -4 -50 -8z"/>
<path d="M4890 2695 c0 -8 5 -15 10 -15 6 0 10 -24 10 -52 0 -72 17 -102 58
-106 18 -2 39 2 47 8 9 8 15 8 20 0 10 -16 75 -13 75 5 0 8 -7 15 -15 15 -12
0 -15 16 -15 80 l0 80 -35 0 c-24 0 -35 -5 -35 -15 0 -8 5 -15 10 -15 7 0 10
-24 8 -62 -3 -53 -6 -63 -22 -66 -31 -6 -46 26 -46 95 l0 63 -35 0 c-24 0 -35
-5 -35 -15z"/>
<path d="M5540 2702 c0 -4 4 -12 10 -18 5 -5 28 -47 50 -93 28 -58 38 -90 34
-107 -8 -30 -24 -41 -34 -23 -7 10 -11 10 -24 0 -20 -17 -9 -41 19 -41 34 0
51 27 90 140 20 58 43 112 51 121 21 24 17 29 -21 29 -36 0 -43 -8 -25 -26 7
-7 4 -28 -8 -65 l-19 -54 -22 50 c-17 38 -20 54 -12 67 17 27 15 28 -39 28
-27 0 -50 -4 -50 -8z"/>
<path d="M3162 1990 c-36 -85 -27 -79 -144 -96 -27 -3 -48 -9 -48 -12 0 -4 25
-32 56 -63 l56 -57 -11 -72 c-7 -40 -10 -75 -7 -77 2 -2 33 11 70 29 l66 32
66 -32 c37 -18 68 -31 70 -29 3 2 0 37 -7 77 l-11 72 58 59 c32 32 56 60 53
63 -2 2 -38 9 -79 15 -41 7 -78 15 -81 19 -3 4 -19 38 -34 75 -16 37 -31 70
-34 71 -3 2 -21 -31 -39 -74z"/>
<path d="M3962 1990 c-36 -85 -27 -79 -144 -96 -27 -3 -48 -9 -48 -12 0 -4 25
-32 56 -63 l56 -57 -11 -72 c-7 -40 -10 -75 -7 -77 2 -2 33 11 70 29 l66 32
66 -32 c37 -18 68 -31 70 -29 3 2 0 37 -7 77 l-11 72 58 59 c32 32 56 60 53
63 -2 2 -38 9 -79 15 -41 7 -78 15 -81 19 -3 4 -19 38 -34 75 -16 37 -31 70
-34 71 -3 2 -21 -31 -39 -74z"/>
<path d="M4762 1990 c-36 -85 -27 -79 -144 -96 -27 -3 -48 -9 -48 -12 0 -4 25
-32 56 -63 l56 -57 -11 -72 c-7 -40 -10 -75 -7 -77 2 -2 33 11 70 29 l66 32
66 -32 c37 -18 68 -31 70 -29 3 2 0 37 -7 77 l-11 72 58 59 c32 32 56 60 53
63 -2 2 -38 9 -79 15 -41 7 -78 15 -81 19 -3 4 -19 38 -34 75 -16 37 -31 70
-34 71 -3 2 -21 -31 -39 -74z"/>
</g>
</svg>
